<mxfile host="app.diagrams.net" modified="2025-10-09T19:19:32.947859Z" agent="python" version="22.0.0"><diagram id="176003757294787" name="Use Case — Seek AI Help while Studying"><mxGraphModel dx="1200" dy="800" grid="1" gridSize="10" guides="1" tooltips="1" connect="1" arrows="1" fold="1" page="1" pageScale="1" pageWidth="2200" pageHeight="1400" math="0" shadow="0"><root><mxCell id="0" /><mxCell id="1" parent="0" /><mxCell id="sys4" value="AI Study Buddy" style="swimlane;rounded=1;horizontal=0;align=center;verticalAlign=top;startSize=28;collapsible=0;" vertex="1" parent="1"><mxGeometry x="360" y="80" width="1400" height="1000" as="geometry" /></mxCell><mxCell id="a_student4" value="Student" style="shape=umlActor;verticalLabelPosition=bottom;verticalAlign=top;" vertex="1" parent="1"><mxGeometry x="160" y="240" width="60" height="120" as="geometry" /></mxCell><mxCell id="a_ai4" value="AI Provider" style="shape=umlActor;verticalLabelPosition=bottom;verticalAlign=top;" vertex="1" parent="1"><mxGeometry x="160" y="720" width="60" height="120" as="geometry" /></mxCell><mxCell id="uc_ask" value="Ask Question (context-aware)" style="ellipse;whiteSpace=wrap;html=1;" vertex="1" parent="sys4"><mxGeometry x="460" y="200" width="220" height="80" as="geometry" /></mxCell><mxCell id="uc_retrieve" value="Retrieve Relevant Notes" style="ellipse;whiteSpace=wrap;html=1;" vertex="1" parent="sys4"><mxGeometry x="820" y="200" width="220" height="80" as="geometry" /></mxCell><mxCell id="uc_answer" value="Generate Answer (+citations)" style="ellipse;whiteSpace=wrap;html=1;" vertex="1" parent="sys4"><mxGeometry x="1160" y="200" width="300" height="80" as="geometry" /></mxCell><mxCell id="uc_follow" value="Follow-up Suggestions" style="ellipse;whiteSpace=wrap;html=1;" vertex="1" parent="sys4"><mxGeometry x="1160" y="360" width="220" height="80" as="geometry" /></mxCell><mxCell id="uc_rate" value="Rate Answer / Save" style="ellipse;whiteSpace=wrap;html=1;" vertex="1" parent="sys4"><mxGeometry x="820" y="360" width="220" height="80" as="geometry" /></mxCell><mxCell id="e41" value="" style="endArrow=classic;" edge="1" parent="1" source="a_student4" target="uc_ask"><mxGeometry relative="1" as="geometry" /></mxCell><mxCell id="e42" value="" style="endArrow=block;dashed=1;" edge="1" parent="1" source="uc_ask" target="uc_retrieve"><mxGeometry relative="1" as="geometry" /></mxCell><mxCell id="e43" value="" style="endArrow=block;dashed=1;" edge="1" parent="1" source="uc_retrieve" target="uc_answer"><mxGeometry relative="1" as="geometry" /></mxCell><mxCell id="e44" value="" style="endArrow=block;dashed=1;" edge="1" parent="1" source="uc_answer" target="uc_follow"><mxGeometry relative="1" as="geometry" /></mxCell><mxCell id="e45" value="" style="endArrow=classic;" edge="1" parent="1" source="a_ai4" target="uc_answer"><mxGeometry relative="1" as="geometry" /></mxCell><mxCell id="e46" value="" style="endArrow=classic;" edge="1" parent="1" source="a_student4" target="uc_rate"><mxGeometry relative="1" as="geometry" /></mxCell></root></mxGraphModel></diagram></mxfile>